<?xml version="1.0" encoding="utf-8"?>
<!-- Generator: Adobe Illustrator 24.1.3, SVG Export Plug-In . SVG Version: 6.00 Build 0)  -->
<svg version="1.1" id="Layer_1" xmlns="http://www.w3.org/2000/svg" xmlns:xlink="http://www.w3.org/1999/xlink" x="0px" y="0px"
	 viewBox="0 0 128 128" style="enable-background:new 0 0 128 128;" xml:space="preserve">
<style type="text/css">
	.st0{fill:#D69118;}
	.st1{fill:#F2B327;}
	.st2{fill:#D3982F;}
	.st3{fill:#F7C448;}
	.st4{fill:#C18021;}
	.st5{fill:#F4BB3B;}
	.st6{fill:#F2B122;}
	.st7{fill:#F2B836;}
	.st8{fill:#FADA80;}
</style>
<g>
	<path class="st0" d="M38.83,77.35l-7.85,2.7c1.34,3.9,3.38,7.46,6.06,10.6l6.31-5.4C41.35,82.92,39.83,80.26,38.83,77.35z"/>
	<path class="st1" d="M40.5,94.13c3.12,2.7,6.66,4.77,10.54,6.15l2.78-7.82c-2.9-1.03-5.55-2.58-7.88-4.6L40.5,94.13z"/>
	<path class="st2" d="M43.48,53.27l-6.28-5.44c-2.7,3.12-4.76,6.66-6.14,10.54l7.83,2.78C39.92,58.25,41.46,55.6,43.48,53.27z"/>
	<path class="st3" d="M83.5,44.52c-3.12-2.7-6.66-4.76-10.54-6.14l-2.78,7.83c2.9,1.03,5.55,2.57,7.88,4.59L83.5,44.52z"/>
	<path class="st4" d="M37.94,74.13l-0.05-0.34c-0.27-1.48-0.41-2.99-0.41-4.48c0-1.55,0.15-3.1,0.44-4.62l-8.15-1.58
		c-0.39,2.03-0.59,4.12-0.59,6.19c0,2,0.19,4.01,0.55,5.99l0,0l0.02,0.12l4.25-0.9L37.94,74.13z"/>
	<path class="st3" d="M70.02,92.52l2.7,7.85c3.9-1.34,7.47-3.38,10.6-6.06L77.93,88C75.59,90,72.93,91.52,70.02,92.52z"/>
	<path class="st5" d="M56.09,37.05L56.09,37.05L56.09,37.05c-0.01,0-0.03,0-0.04,0.01l-0.22,0.05l0.94,4.01l0.69,4.12l0.21-0.04
		c2.98-0.54,6.04-0.52,8.98,0.05l1.57-8.15C64.25,36.33,60.11,36.31,56.09,37.05z"/>
	<path class="st6" d="M40.68,44.37l5.4,6.31c2.34-2,5-3.52,7.9-4.52l-2.7-7.85C47.38,39.65,43.82,41.69,40.68,44.37z"/>
	<path class="st7" d="M67.2,97.41l-0.45-4.01l-0.29,0.04c-3.02,0.56-6.13,0.55-9.11-0.03l-1.58,8.15c2.04,0.4,4.13,0.6,6.21,0.6
		c2,0,4.01-0.19,5.99-0.55l0,0l0.07-0.01L67.2,97.41z"/>
	<g>
		<path class="st8" d="M47.84,87.32c1.14,0.9,2.37,1.69,3.66,2.35l0.95-1.84c-1.17-0.61-2.29-1.33-3.33-2.14L47.84,87.32z"/>
		<path class="st8" d="M42.33,76.13l-1.96,0.68c0.47,1.37,1.08,2.71,1.8,3.96l1.8-1.04C43.31,78.6,42.76,77.38,42.33,76.13z"/>
		<path class="st8" d="M45.04,81.4l-1.69,1.2c0.84,1.18,1.8,2.29,2.85,3.29l1.43-1.5C46.67,83.48,45.8,82.47,45.04,81.4z"/>
		<path class="st8" d="M43.36,56.05l1.69,1.2c0.77-1.08,1.64-2.08,2.59-2.99l-1.43-1.5C45.16,53.76,44.21,54.87,43.36,56.05z"/>
		<path class="st8" d="M43.98,58.92l-1.8-1.04c-0.73,1.26-1.34,2.59-1.81,3.96l1.96,0.68C42.77,61.28,43.32,60.07,43.98,58.92z"/>
		<path class="st8" d="M76.16,51.33c-1.14-0.9-2.37-1.69-3.66-2.35l-0.95,1.85c1.17,0.6,2.29,1.32,3.33,2.14L76.16,51.33z"/>
		<path class="st8" d="M40.6,74.52l1.18-0.27l-0.02-0.07c-0.29-1.23-0.48-2.49-0.55-3.75l-0.01-0.11l-2.07,0.09l0.01,0.13
			c0.07,1.39,0.28,2.79,0.61,4.15l0,0.02l0,0l0,0l0.01,0.04L40.6,74.52z"/>
		<path class="st8" d="M41.78,64.42l-2.02-0.49c-0.34,1.41-0.55,2.86-0.62,4.31l2.07,0.1C41.27,67.02,41.46,65.7,41.78,64.42z"/>
		<path class="st8" d="M63.1,90.13c-1.03,0.06-2.07,0.03-3.09-0.07l-0.2,2.07c1.13,0.11,2.27,0.13,3.4,0.07c0.01,0,0.02,0,0.03,0
			c0.31-0.02,0.62-0.04,0.92-0.07l-0.2-2.07C63.68,90.09,63.38,90.11,63.1,90.13z"/>
		<path class="st8" d="M65.95,48.89c1.29,0.25,2.57,0.63,3.8,1.12l0.77-1.93c-1.35-0.54-2.75-0.95-4.17-1.23L65.95,48.89z"/>
		<path class="st8" d="M47.86,51.34l1.28,1.63c1.04-0.82,2.16-1.53,3.33-2.14l-0.95-1.85C50.23,49.65,49,50.44,47.86,51.34z"/>
		<path class="st8" d="M71.53,87.86l0.95,1.85c1.29-0.66,2.52-1.45,3.67-2.35l-1.28-1.63C73.82,86.54,72.7,87.26,71.53,87.86z"/>
		<path class="st8" d="M66.88,89.58c-0.32,0.08-0.64,0.15-0.96,0.21l0.39,2.04c0.35-0.07,0.7-0.14,1.05-0.23
			c1.07-0.26,2.12-0.59,3.13-0.99l-0.77-1.93C68.81,89.04,67.85,89.34,66.88,89.58z"/>
		<path class="st8" d="M60.81,46.47c-0.33,0.02-0.66,0.04-0.98,0.07l0.2,2.07c0.29-0.03,0.58-0.05,0.87-0.07
			c1.02-0.06,2.06-0.04,3.09,0.06l0.2-2.07C63.06,46.43,61.93,46.41,60.81,46.47z"/>
		<path class="st8" d="M53.48,90.58c1.35,0.54,2.75,0.96,4.17,1.23l0.4-2.04c-1.29-0.25-2.57-0.63-3.79-1.12L53.48,90.58z"/>
		<path class="st8" d="M56.66,47.08c-1.08,0.26-2.14,0.6-3.16,1l0.77,1.93c0.93-0.37,1.89-0.68,2.87-0.91
			c0.31-0.07,0.62-0.14,0.92-0.2l-0.39-2.04C57.33,46.92,57,46.99,56.66,47.08z"/>
	</g>
	<path class="st8" d="M30.21,82.11l-1.93,0.77c0.52,1.31,1.13,2.59,1.8,3.82l1.82-0.99C31.27,84.55,30.7,83.34,30.21,82.11z"/>
	<path class="st8" d="M28.12,74.4c-0.2-1.31-0.32-2.63-0.36-3.94l-2.07,0.07c0.05,1.39,0.18,2.8,0.39,4.19l1.03-0.14L28.12,74.4z"/>
	<path class="st8" d="M39.57,97.92c1.1,0.87,2.27,1.68,3.47,2.41l1.08-1.77c-1.13-0.69-2.23-1.46-3.27-2.28L39.57,97.92z"/>
	<path class="st8" d="M32.9,87.43l-1.76,1.1c0.74,1.19,1.56,2.35,2.44,3.45l1.62-1.29C34.37,89.65,33.6,88.55,32.9,87.43z"/>
	<path class="st8" d="M43.91,40.23l-1.1-1.76c-1.19,0.74-2.35,1.56-3.45,2.44l1.3,1.62C41.69,41.71,42.79,40.93,43.91,40.23z"/>
	<path class="st8" d="M36.49,92.2l-1.54,1.39c0.94,1.04,1.95,2.04,3,2.97l1.37-1.56C38.32,94.13,37.37,93.19,36.49,92.2z"/>
	<path class="st8" d="M28.48,76.39l-2.03,0.43c0.29,1.38,0.66,2.75,1.1,4.08l1.97-0.66C29.1,78.98,28.75,77.69,28.48,76.39z"/>
	<path class="st8" d="M27.76,68.13c0.04-1.21,0.15-2.44,0.32-3.64l-2.06-0.29c-0.18,1.27-0.3,2.57-0.34,3.86
		c0,0.12-0.01,0.24-0.01,0.36l2.08,0.05C27.75,68.35,27.76,68.24,27.76,68.13z"/>
	<path class="st8" d="M35.06,48.18l-1.63-1.28c-0.87,1.11-1.68,2.27-2.41,3.47l1.77,1.08C33.47,50.32,34.24,49.22,35.06,48.18z"/>
	<path class="st8" d="M39.14,43.82l-1.39-1.54c-1.04,0.94-2.04,1.95-2.97,3l1.56,1.37C37.21,45.66,38.15,44.7,39.14,43.82z"/>
	<path class="st8" d="M31.79,53.18l-1.83-0.98c-0.66,1.24-1.26,2.53-1.78,3.83l1.93,0.76C30.6,55.57,31.16,54.35,31.79,53.18z"/>
	<path class="st8" d="M29.44,58.67l-1.97-0.65c-0.44,1.34-0.8,2.71-1.08,4.09l2.03,0.41C28.68,61.23,29.03,59.93,29.44,58.67z"/>
	<path class="st8" d="M50.69,103.88c1.34,0.44,2.71,0.8,4.09,1.08l0.41-2.03c-1.3-0.26-2.59-0.61-3.85-1.02L50.69,103.88z"/>
	<path class="st8" d="M79.13,37.28c-1.24-0.66-2.53-1.26-3.84-1.77l-0.76,1.93c1.23,0.48,2.45,1.05,3.62,1.67L79.13,37.28z"/>
	<path class="st8" d="M73.31,34.79c-1.34-0.44-2.71-0.8-4.09-1.08l-0.41,2.03c1.3,0.26,2.59,0.6,3.85,1.02L73.31,34.79z"/>
	<path class="st8" d="M69.05,102.87l0.43,2.03c1.38-0.29,2.75-0.66,4.08-1.1l-0.66-1.97C71.65,102.25,70.35,102.6,69.05,102.87z"/>
	<path class="st8" d="M74.77,101.14l0.77,1.93c1.3-0.52,2.59-1.13,3.83-1.8l-0.99-1.82C77.21,100.08,76,100.65,74.77,101.14z"/>
	<path class="st8" d="M49.23,37.54l-0.77-1.93c-1.3,0.52-2.59,1.13-3.82,1.8l0.99,1.82C46.79,38.6,48,38.03,49.23,37.54z"/>
	<path class="st8" d="M80.1,98.45l1.1,1.76c1.19-0.74,2.35-1.56,3.45-2.44l-1.29-1.62C82.31,96.98,81.22,97.75,80.1,98.45z"/>
	<path class="st8" d="M84.44,40.74c-1.11-0.87-2.27-1.68-3.47-2.41l-1.08,1.77c1.13,0.69,2.23,1.46,3.27,2.27L84.44,40.74z"/>
	<path class="st8" d="M67.4,105.27l-0.3-2.05l-0.05,0.01c-1.3,0.19-2.62,0.31-3.93,0.36l0.07,2.07
		C64.59,105.61,66,105.48,67.4,105.27l0.05-0.01l-0.2-1L67.4,105.27z"/>
	<path class="st8" d="M54.94,35.81l-0.43-2.03c-1.38,0.29-2.75,0.66-4.08,1.11l0.66,1.97C52.35,36.43,53.65,36.08,54.94,35.81z"/>
	<path class="st8" d="M44.87,101.38c1.24,0.66,2.53,1.26,3.83,1.78l0.76-1.93c-1.23-0.49-2.45-1.05-3.62-1.68L44.87,101.38z"/>
	<path class="st8" d="M56.94,35.45c1.3-0.2,2.63-0.32,3.93-0.36l-0.07-2.07c-1.39,0.05-2.79,0.18-4.18,0.39l0.28,2.06L56.94,35.45z"
		/>
	<path class="st8" d="M57.16,103.26l-0.29,2.06c1.28,0.18,2.58,0.3,3.87,0.34l0.34,0.01l0.05-2.08l-0.32-0.01
		C59.59,103.54,58.36,103.44,57.16,103.26z"/>
	<path class="st8" d="M66.84,35.4l0.29-2.06c-1.27-0.18-2.56-0.29-3.85-0.34L62.92,33l-0.05,2.08l0.35,0.01
		C64.42,35.13,65.64,35.23,66.84,35.4z"/>
</g>
</svg>
